<svg width="403" height="100" viewBox="0 0 403 100" fill="none" xmlns="http://www.w3.org/2000/svg">
<path d="M6.2377 94.6705C5.5597 94.6705 4.9057 94.5655 4.2757 94.3555C3.6457 94.1395 3.0937 93.8335 2.6197 93.4375C2.1517 93.0415 1.8187 92.5705 1.6207 92.0245L3.0337 91.4935C3.1537 91.8295 3.3757 92.1235 3.6997 92.3755C4.0297 92.6215 4.4167 92.8135 4.8607 92.9515C5.3047 93.0895 5.7637 93.1585 6.2377 93.1585C6.7777 93.1585 7.2787 93.0715 7.7407 92.8975C8.2087 92.7175 8.5867 92.4685 8.8747 92.1505C9.1627 91.8325 9.3067 91.4605 9.3067 91.0345C9.3067 90.5965 9.1567 90.2395 8.8567 89.9635C8.5567 89.6815 8.1727 89.4595 7.7047 89.2975C7.2367 89.1295 6.7477 89.0005 6.2377 88.9105C5.3677 88.7665 4.5877 88.5625 3.8977 88.2985C3.2137 88.0285 2.6707 87.6535 2.2687 87.1735C1.8727 86.6935 1.6747 86.0605 1.6747 85.2745C1.6747 84.5425 1.8847 83.9035 2.3047 83.3575C2.7307 82.8115 3.2917 82.3885 3.9877 82.0885C4.6837 81.7885 5.4337 81.6385 6.2377 81.6385C6.9037 81.6385 7.5487 81.7435 8.1727 81.9535C8.8027 82.1575 9.3577 82.4575 9.8377 82.8535C10.3177 83.2495 10.6627 83.7325 10.8727 84.3025L9.4417 84.8245C9.3217 84.4825 9.0967 84.1885 8.7667 83.9425C8.4427 83.6905 8.0587 83.4985 7.6147 83.3665C7.1767 83.2285 6.7177 83.1595 6.2377 83.1595C5.7037 83.1535 5.2057 83.2405 4.7437 83.4205C4.2817 83.6005 3.9067 83.8495 3.6187 84.1675C3.3307 84.4855 3.1867 84.8545 3.1867 85.2745C3.1867 85.7785 3.3187 86.1655 3.5827 86.4355C3.8527 86.6995 4.2187 86.8975 4.6807 87.0295C5.1427 87.1615 5.6617 87.2785 6.2377 87.3805C7.0537 87.5185 7.8097 87.7375 8.5057 88.0375C9.2017 88.3315 9.7597 88.7245 10.1797 89.2165C10.6057 89.7085 10.8187 90.3145 10.8187 91.0345C10.8187 91.7665 10.6057 92.4055 10.1797 92.9515C9.7597 93.4975 9.2017 93.9205 8.5057 94.2205C7.8097 94.5205 7.0537 94.6705 6.2377 94.6705ZM17.8963 86.9485H15.8533L15.8443 94.4365H14.3323L14.3413 86.9485H12.7933V85.4365H14.3413L14.3323 82.6105H15.8443L15.8533 85.4365H17.8963V86.9485ZM20.0097 94.4365V85.4365H21.5217V86.5615C21.8397 86.1415 22.2417 85.8085 22.7277 85.5625C23.2137 85.3105 23.7417 85.1845 24.3117 85.1845C24.6597 85.1845 24.9957 85.2295 25.3197 85.3195L24.7077 86.8315C24.4617 86.7535 24.2217 86.7145 23.9877 86.7145C23.5377 86.7145 23.1237 86.8255 22.7457 87.0475C22.3737 87.2635 22.0767 87.5575 21.8547 87.9295C21.6327 88.3015 21.5217 88.7155 21.5217 89.1715V94.4365H20.0097ZM30.4287 94.6705C29.6007 94.6705 28.8447 94.4575 28.1607 94.0315C27.4827 93.6055 26.9397 93.0355 26.5317 92.3215C26.1297 91.6015 25.9287 90.8065 25.9287 89.9365C25.9287 89.2765 26.0457 88.6615 26.2797 88.0915C26.5137 87.5155 26.8347 87.0115 27.2427 86.5795C27.6567 86.1415 28.1367 85.7995 28.6827 85.5535C29.2287 85.3075 29.8107 85.1845 30.4287 85.1845C31.1067 85.1845 31.7277 85.3225 32.2917 85.5985C32.8617 85.8685 33.3477 86.2465 33.7497 86.7325C34.1577 87.2185 34.4607 87.7825 34.6587 88.4245C34.8627 89.0665 34.9377 89.7535 34.8837 90.4855H27.5397C27.6117 90.9955 27.7797 91.4515 28.0437 91.8535C28.3077 92.2495 28.6437 92.5645 29.0517 92.7985C29.4657 93.0325 29.9247 93.1525 30.4287 93.1585C30.9687 93.1585 31.4577 93.0205 31.8957 92.7445C32.3337 92.4625 32.6877 92.0785 32.9577 91.5925L34.4967 91.9525C34.1367 92.7505 33.5937 93.4045 32.8677 93.9145C32.1417 94.4185 31.3287 94.6705 30.4287 94.6705ZM27.4947 89.2975H33.3627C33.3147 88.7935 33.1527 88.3345 32.8767 87.9205C32.6007 87.5005 32.2497 87.1645 31.8237 86.9125C31.3977 86.6605 30.9327 86.5345 30.4287 86.5345C29.9247 86.5345 29.4627 86.6575 29.0427 86.9035C28.6227 87.1495 28.2747 87.4825 27.9987 87.9025C27.7287 88.3165 27.5607 88.7815 27.4947 89.2975ZM44.0836 85.4365H45.5956V94.4365H44.0836L44.0206 92.9155C43.7386 93.4375 43.3486 93.8605 42.8506 94.1845C42.3586 94.5085 41.7706 94.6705 41.0866 94.6705C40.4266 94.6705 39.8086 94.5475 39.2326 94.3015C38.6566 94.0495 38.1466 93.7045 37.7026 93.2665C37.2646 92.8225 36.9226 92.3125 36.6766 91.7365C36.4306 91.1605 36.3076 90.5395 36.3076 89.8735C36.3076 89.2315 36.4276 88.6255 36.6676 88.0555C36.9076 87.4855 37.2406 86.9875 37.6666 86.5615C38.0986 86.1295 38.5966 85.7935 39.1606 85.5535C39.7246 85.3075 40.3306 85.1845 40.9786 85.1845C41.6866 85.1845 42.3076 85.3525 42.8416 85.6885C43.3756 86.0185 43.8076 86.4475 44.1376 86.9755L44.0836 85.4365ZM41.0596 93.2035C41.6536 93.2035 42.1666 93.0595 42.5986 92.7715C43.0366 92.4775 43.3726 92.0815 43.6066 91.5835C43.8466 91.0855 43.9666 90.5365 43.9666 89.9365C43.9666 89.3245 43.8466 88.7725 43.6066 88.2805C43.3666 87.7825 43.0276 87.3895 42.5896 87.1015C42.1576 86.8075 41.6476 86.6605 41.0596 86.6605C40.4656 86.6605 39.9256 86.8075 39.4396 87.1015C38.9536 87.3955 38.5666 87.7915 38.2786 88.2895C37.9966 88.7815 37.8556 89.3305 37.8556 89.9365C37.8556 90.5425 38.0026 91.0945 38.2966 91.5925C38.5906 92.0845 38.9806 92.4775 39.4666 92.7715C39.9526 93.0595 40.4836 93.2035 41.0596 93.2035ZM47.8945 94.4365V85.4365H49.4065V86.5615C49.7245 86.1415 50.1235 85.8085 50.6035 85.5625C51.0895 85.3105 51.6175 85.1845 52.1875 85.1845C52.8535 85.1845 53.4625 85.3465 54.0145 85.6705C54.5665 85.9945 55.0015 86.4235 55.3195 86.9575C55.6375 86.4235 56.0695 85.9945 56.6155 85.6705C57.1675 85.3465 57.7735 85.1845 58.4335 85.1845C59.1115 85.1845 59.7265 85.3495 60.2785 85.6795C60.8305 86.0035 61.2685 86.4415 61.5925 86.9935C61.9225 87.5455 62.0875 88.1605 62.0875 88.8385V94.4365H60.5755V89.1985C60.5755 88.7545 60.4675 88.3435 60.2515 87.9655C60.0355 87.5875 59.7445 87.2845 59.3785 87.0565C59.0125 86.8285 58.6075 86.7145 58.1635 86.7145C57.7195 86.7145 57.3145 86.8225 56.9485 87.0385C56.5825 87.2485 56.2915 87.5425 56.0755 87.9205C55.8595 88.2925 55.7515 88.7185 55.7515 89.1985V94.4365H54.2395V89.1985C54.2395 88.7185 54.1315 88.2925 53.9155 87.9205C53.6995 87.5425 53.4055 87.2485 53.0335 87.0385C52.6675 86.8225 52.2625 86.7145 51.8185 86.7145C51.3805 86.7145 50.9755 86.8285 50.6035 87.0565C50.2375 87.2845 49.9465 87.5875 49.7305 87.9655C49.5145 88.3435 49.4065 88.7545 49.4065 89.1985V94.4365H47.8945ZM64.496 94.4365V80.9365H66.008V94.4365H64.496ZM68.6698 85.4365H70.1818V94.4365H68.6698V85.4365ZM69.4438 83.9695C69.2038 83.9695 69.0028 83.8915 68.8408 83.7355C68.6788 83.5795 68.5978 83.3845 68.5978 83.1505C68.5978 82.9165 68.6788 82.7215 68.8408 82.5655C69.0028 82.4095 69.2008 82.3315 69.4348 82.3315C69.6688 82.3315 69.8668 82.4095 70.0288 82.5655C70.1908 82.7215 70.2718 82.9165 70.2718 83.1505C70.2718 83.3845 70.1908 83.5795 70.0288 83.7355C69.8728 83.8915 69.6778 83.9695 69.4438 83.9695ZM80.7469 88.8385V94.4365H79.2349V89.1715C79.2349 88.7155 79.1239 88.3015 78.9019 87.9295C78.6799 87.5575 78.3829 87.2635 78.0109 87.0475C77.6389 86.8255 77.2249 86.7145 76.7689 86.7145C76.3189 86.7145 75.9049 86.8255 75.5269 87.0475C75.1549 87.2635 74.8579 87.5575 74.6359 87.9295C74.4139 88.3015 74.3029 88.7155 74.3029 89.1715V94.4365H72.7909V85.4365H74.3029V86.5615C74.6209 86.1415 75.0229 85.8085 75.5089 85.5625C75.9949 85.3105 76.5229 85.1845 77.0929 85.1845C77.7649 85.1845 78.3769 85.3495 78.9289 85.6795C79.4869 86.0035 79.9279 86.4415 80.2519 86.9935C80.5819 87.5455 80.7469 88.1605 80.7469 88.8385ZM83.0468 85.4365H84.5588V94.4365H83.0468V85.4365ZM83.8208 83.9695C83.5808 83.9695 83.3798 83.8915 83.2178 83.7355C83.0558 83.5795 82.9748 83.3845 82.9748 83.1505C82.9748 82.9165 83.0558 82.7215 83.2178 82.5655C83.3798 82.4095 83.5778 82.3315 83.8118 82.3315C84.0458 82.3315 84.2438 82.4095 84.4058 82.5655C84.5678 82.7215 84.6488 82.9165 84.6488 83.1505C84.6488 83.3845 84.5678 83.5795 84.4058 83.7355C84.2498 83.8915 84.0548 83.9695 83.8208 83.9695ZM95.1239 88.8385V94.4365H93.6119V89.1715C93.6119 88.7155 93.5009 88.3015 93.2789 87.9295C93.0569 87.5575 92.7599 87.2635 92.3879 87.0475C92.0159 86.8255 91.6019 86.7145 91.1459 86.7145C90.6959 86.7145 90.2819 86.8255 89.9039 87.0475C89.5319 87.2635 89.2349 87.5575 89.0129 87.9295C88.7909 88.3015 88.6799 88.7155 88.6799 89.1715V94.4365H87.1679V85.4365H88.6799V86.5615C88.9979 86.1415 89.3999 85.8085 89.8859 85.5625C90.3719 85.3105 90.8999 85.1845 91.4699 85.1845C92.1419 85.1845 92.7539 85.3495 93.3059 85.6795C93.8639 86.0035 94.3049 86.4415 94.6289 86.9935C94.9589 87.5455 95.1239 88.1605 95.1239 88.8385ZM104.277 85.4365H105.789V94.7245C105.789 95.3185 105.66 95.8705 105.402 96.3805C105.15 96.8965 104.808 97.3435 104.376 97.7215C103.944 98.1055 103.452 98.4025 102.9 98.6125C102.348 98.8285 101.772 98.9365 101.172 98.9365C100.548 98.9365 99.945 98.7955 99.363 98.5135C98.781 98.2375 98.271 97.8655 97.833 97.3975C97.401 96.9355 97.089 96.4165 96.897 95.8405L98.283 95.2105C98.397 95.6245 98.601 95.9965 98.895 96.3265C99.195 96.6625 99.543 96.9265 99.939 97.1185C100.341 97.3165 100.752 97.4155 101.172 97.4155C101.568 97.4155 101.949 97.3465 102.315 97.2085C102.687 97.0705 103.02 96.8785 103.314 96.6325C103.614 96.3925 103.848 96.1075 104.016 95.7775C104.19 95.4535 104.277 95.1025 104.277 94.7245V92.9335C103.971 93.4495 103.566 93.8695 103.062 94.1935C102.564 94.5115 101.982 94.6705 101.316 94.6705C100.68 94.6705 100.083 94.5475 99.525 94.3015C98.967 94.0555 98.478 93.7165 98.058 93.2845C97.638 92.8465 97.308 92.3425 97.068 91.7725C96.828 91.2025 96.708 90.5905 96.708 89.9365C96.708 89.2825 96.828 88.6705 97.068 88.1005C97.308 87.5245 97.638 87.0205 98.058 86.5885C98.478 86.1505 98.967 85.8085 99.525 85.5625C100.083 85.3165 100.68 85.1935 101.316 85.1935C101.982 85.1935 102.564 85.3525 103.062 85.6705C103.566 85.9885 103.971 86.4085 104.277 86.9305V85.4365ZM101.325 93.2035C101.907 93.2035 102.411 93.0535 102.837 92.7535C103.269 92.4535 103.602 92.0545 103.836 91.5565C104.07 91.0585 104.187 90.5185 104.187 89.9365C104.187 89.3365 104.067 88.7905 103.827 88.2985C103.593 87.8005 103.26 87.4045 102.828 87.1105C102.402 86.8105 101.901 86.6605 101.325 86.6605C100.761 86.6605 100.245 86.8075 99.777 87.1015C99.309 87.3955 98.937 87.7915 98.661 88.2895C98.391 88.7815 98.256 89.3305 98.256 89.9365C98.256 90.5425 98.394 91.0945 98.67 91.5925C98.952 92.0845 99.324 92.4775 99.786 92.7715C100.254 93.0595 100.767 93.2035 101.325 93.2035ZM113.547 94.4365V81.8365H115.059V94.4365H113.547ZM117.996 94.4365V85.4365H119.508V86.5615C119.826 86.1415 120.225 85.8085 120.705 85.5625C121.191 85.3105 121.719 85.1845 122.289 85.1845C122.955 85.1845 123.564 85.3465 124.116 85.6705C124.668 85.9945 125.103 86.4235 125.421 86.9575C125.739 86.4235 126.171 85.9945 126.717 85.6705C127.269 85.3465 127.875 85.1845 128.535 85.1845C129.213 85.1845 129.828 85.3495 130.38 85.6795C130.932 86.0035 131.37 86.4415 131.694 86.9935C132.024 87.5455 132.189 88.1605 132.189 88.8385V94.4365H130.677V89.1985C130.677 88.7545 130.569 88.3435 130.353 87.9655C130.137 87.5875 129.846 87.2845 129.48 87.0565C129.114 86.8285 128.709 86.7145 128.265 86.7145C127.821 86.7145 127.416 86.8225 127.05 87.0385C126.684 87.2485 126.393 87.5425 126.177 87.9205C125.961 88.2925 125.853 88.7185 125.853 89.1985V94.4365H124.341V89.1985C124.341 88.7185 124.233 88.2925 124.017 87.9205C123.801 87.5425 123.507 87.2485 123.135 87.0385C122.769 86.8225 122.364 86.7145 121.92 86.7145C121.482 86.7145 121.077 86.8285 120.705 87.0565C120.339 87.2845 120.048 87.5875 119.832 87.9655C119.616 88.3435 119.508 88.7545 119.508 89.1985V94.4365H117.996ZM134.492 94.4365V85.4365H136.004V86.5615C136.322 86.1415 136.721 85.8085 137.201 85.5625C137.687 85.3105 138.215 85.1845 138.785 85.1845C139.451 85.1845 140.06 85.3465 140.612 85.6705C141.164 85.9945 141.599 86.4235 141.917 86.9575C142.235 86.4235 142.667 85.9945 143.213 85.6705C143.765 85.3465 144.371 85.1845 145.031 85.1845C145.709 85.1845 146.324 85.3495 146.876 85.6795C147.428 86.0035 147.866 86.4415 148.19 86.9935C148.52 87.5455 148.685 88.1605 148.685 88.8385V94.4365H147.173V89.1985C147.173 88.7545 147.065 88.3435 146.849 87.9655C146.633 87.5875 146.342 87.2845 145.976 87.0565C145.61 86.8285 145.205 86.7145 144.761 86.7145C144.317 86.7145 143.912 86.8225 143.546 87.0385C143.18 87.2485 142.889 87.5425 142.673 87.9205C142.457 88.2925 142.349 88.7185 142.349 89.1985V94.4365H140.837V89.1985C140.837 88.7185 140.729 88.2925 140.513 87.9205C140.297 87.5425 140.003 87.2485 139.631 87.0385C139.265 86.8225 138.86 86.7145 138.416 86.7145C137.978 86.7145 137.573 86.8285 137.201 87.0565C136.835 87.2845 136.544 87.5875 136.328 87.9655C136.112 88.3435 136.004 88.7545 136.004 89.1985V94.4365H134.492ZM150.988 85.4365H152.5V94.4365H150.988V85.4365ZM151.762 83.9695C151.522 83.9695 151.321 83.8915 151.159 83.7355C150.997 83.5795 150.916 83.3845 150.916 83.1505C150.916 82.9165 150.997 82.7215 151.159 82.5655C151.321 82.4095 151.519 82.3315 151.753 82.3315C151.987 82.3315 152.185 82.4095 152.347 82.5655C152.509 82.7215 152.59 82.9165 152.59 83.1505C152.59 83.3845 152.509 83.5795 152.347 83.7355C152.191 83.8915 151.996 83.9695 151.762 83.9695ZM162.068 85.4365H163.58V94.7245C163.58 95.3185 163.451 95.8705 163.193 96.3805C162.941 96.8965 162.599 97.3435 162.167 97.7215C161.735 98.1055 161.243 98.4025 160.691 98.6125C160.139 98.8285 159.563 98.9365 158.963 98.9365C158.339 98.9365 157.736 98.7955 157.154 98.5135C156.572 98.2375 156.062 97.8655 155.624 97.3975C155.192 96.9355 154.88 96.4165 154.688 95.8405L156.074 95.2105C156.188 95.6245 156.392 95.9965 156.686 96.3265C156.986 96.6625 157.334 96.9265 157.73 97.1185C158.132 97.3165 158.543 97.4155 158.963 97.4155C159.359 97.4155 159.74 97.3465 160.106 97.2085C160.478 97.0705 160.811 96.8785 161.105 96.6325C161.405 96.3925 161.639 96.1075 161.807 95.7775C161.981 95.4535 162.068 95.1025 162.068 94.7245V92.9335C161.762 93.4495 161.357 93.8695 160.853 94.1935C160.355 94.5115 159.773 94.6705 159.107 94.6705C158.471 94.6705 157.874 94.5475 157.316 94.3015C156.758 94.0555 156.269 93.7165 155.849 93.2845C155.429 92.8465 155.099 92.3425 154.859 91.7725C154.619 91.2025 154.499 90.5905 154.499 89.9365C154.499 89.2825 154.619 88.6705 154.859 88.1005C155.099 87.5245 155.429 87.0205 155.849 86.5885C156.269 86.1505 156.758 85.8085 157.316 85.5625C157.874 85.3165 158.471 85.1935 159.107 85.1935C159.773 85.1935 160.355 85.3525 160.853 85.6705C161.357 85.9885 161.762 86.4085 162.068 86.9305V85.4365ZM159.116 93.2035C159.698 93.2035 160.202 93.0535 160.628 92.7535C161.06 92.4535 161.393 92.0545 161.627 91.5565C161.861 91.0585 161.978 90.5185 161.978 89.9365C161.978 89.3365 161.858 88.7905 161.618 88.2985C161.384 87.8005 161.051 87.4045 160.619 87.1105C160.193 86.8105 159.692 86.6605 159.116 86.6605C158.552 86.6605 158.036 86.8075 157.568 87.1015C157.1 87.3955 156.728 87.7915 156.452 88.2895C156.182 88.7815 156.047 89.3305 156.047 89.9365C156.047 90.5425 156.185 91.0945 156.461 91.5925C156.743 92.0845 157.115 92.4775 157.577 92.7715C158.045 93.0595 158.558 93.2035 159.116 93.2035ZM166.244 94.4365V85.4365H167.756V86.5615C168.074 86.1415 168.476 85.8085 168.962 85.5625C169.448 85.3105 169.976 85.1845 170.546 85.1845C170.894 85.1845 171.23 85.2295 171.554 85.3195L170.942 86.8315C170.696 86.7535 170.456 86.7145 170.222 86.7145C169.772 86.7145 169.358 86.8255 168.98 87.0475C168.608 87.2635 168.311 87.5575 168.089 87.9295C167.867 88.3015 167.756 88.7155 167.756 89.1715V94.4365H166.244ZM179.939 85.4365H181.451V94.4365H179.939L179.876 92.9155C179.594 93.4375 179.204 93.8605 178.706 94.1845C178.214 94.5085 177.626 94.6705 176.942 94.6705C176.282 94.6705 175.664 94.5475 175.088 94.3015C174.512 94.0495 174.002 93.7045 173.558 93.2665C173.12 92.8225 172.778 92.3125 172.532 91.7365C172.286 91.1605 172.163 90.5395 172.163 89.8735C172.163 89.2315 172.283 88.6255 172.523 88.0555C172.763 87.4855 173.096 86.9875 173.522 86.5615C173.954 86.1295 174.452 85.7935 175.016 85.5535C175.58 85.3075 176.186 85.1845 176.834 85.1845C177.542 85.1845 178.163 85.3525 178.697 85.6885C179.231 86.0185 179.663 86.4475 179.993 86.9755L179.939 85.4365ZM176.915 93.2035C177.509 93.2035 178.022 93.0595 178.454 92.7715C178.892 92.4775 179.228 92.0815 179.462 91.5835C179.702 91.0855 179.822 90.5365 179.822 89.9365C179.822 89.3245 179.702 88.7725 179.462 88.2805C179.222 87.7825 178.883 87.3895 178.445 87.1015C178.013 86.8075 177.503 86.6605 176.915 86.6605C176.321 86.6605 175.781 86.8075 175.295 87.1015C174.809 87.3955 174.422 87.7915 174.134 88.2895C173.852 88.7815 173.711 89.3305 173.711 89.9365C173.711 90.5425 173.858 91.0945 174.152 91.5925C174.446 92.0845 174.836 92.4775 175.322 92.7715C175.808 93.0595 176.339 93.2035 176.915 93.2035ZM188.412 86.9485H186.369L186.36 94.4365H184.848L184.857 86.9485H183.309V85.4365H184.857L184.848 82.6105H186.36L186.369 85.4365H188.412V86.9485ZM190.437 85.4365H191.949V94.4365H190.437V85.4365ZM191.211 83.9695C190.971 83.9695 190.77 83.8915 190.608 83.7355C190.446 83.5795 190.365 83.3845 190.365 83.1505C190.365 82.9165 190.446 82.7215 190.608 82.5655C190.77 82.4095 190.968 82.3315 191.202 82.3315C191.436 82.3315 191.634 82.4095 191.796 82.5655C191.958 82.7215 192.039 82.9165 192.039 83.1505C192.039 83.3845 191.958 83.5795 191.796 83.7355C191.64 83.8915 191.445 83.9695 191.211 83.9695ZM198.448 94.6705C197.62 94.6705 196.864 94.4575 196.18 94.0315C195.502 93.6055 194.959 93.0355 194.551 92.3215C194.149 91.6015 193.948 90.8065 193.948 89.9365C193.948 89.2765 194.065 88.6615 194.299 88.0915C194.533 87.5155 194.854 87.0115 195.262 86.5795C195.676 86.1415 196.156 85.7995 196.702 85.5535C197.248 85.3075 197.83 85.1845 198.448 85.1845C199.276 85.1845 200.029 85.3975 200.707 85.8235C201.391 86.2495 201.934 86.8225 202.336 87.5425C202.744 88.2625 202.948 89.0605 202.948 89.9365C202.948 90.5905 202.831 91.2025 202.597 91.7725C202.363 92.3425 202.039 92.8465 201.625 93.2845C201.217 93.7165 200.74 94.0555 200.194 94.3015C199.654 94.5475 199.072 94.6705 198.448 94.6705ZM198.448 93.1585C199.012 93.1585 199.519 93.0115 199.969 92.7175C200.425 92.4175 200.782 92.0245 201.04 91.5385C201.304 91.0465 201.436 90.5125 201.436 89.9365C201.436 89.3485 201.301 88.8085 201.031 88.3165C200.767 87.8245 200.41 87.4315 199.96 87.1375C199.51 86.8435 199.006 86.6965 198.448 86.6965C197.884 86.6965 197.377 86.8465 196.927 87.1465C196.477 87.4405 196.12 87.8335 195.856 88.3255C195.592 88.8175 195.46 89.3545 195.46 89.9365C195.46 90.5365 195.595 91.0825 195.865 91.5745C196.135 92.0605 196.498 92.4475 196.954 92.7355C197.41 93.0175 197.908 93.1585 198.448 93.1585ZM212.893 88.8385V94.4365H211.381V89.1715C211.381 88.7155 211.27 88.3015 211.048 87.9295C210.826 87.5575 210.529 87.2635 210.157 87.0475C209.785 86.8255 209.371 86.7145 208.915 86.7145C208.465 86.7145 208.051 86.8255 207.673 87.0475C207.301 87.2635 207.004 87.5575 206.782 87.9295C206.56 88.3015 206.449 88.7155 206.449 89.1715V94.4365H204.937V85.4365H206.449V86.5615C206.767 86.1415 207.169 85.8085 207.655 85.5625C208.141 85.3105 208.669 85.1845 209.239 85.1845C209.911 85.1845 210.523 85.3495 211.075 85.6795C211.633 86.0035 212.074 86.4415 212.398 86.9935C212.728 87.5455 212.893 88.1605 212.893 88.8385ZM214.833 95.4445L215.391 92.4025H216.903L215.841 95.4445H214.833ZM230.235 94.6705C229.383 94.6705 228.582 94.5025 227.832 94.1665C227.082 93.8245 226.422 93.3535 225.852 92.7535C225.282 92.1535 224.835 91.4605 224.511 90.6745C224.187 89.8825 224.025 89.0365 224.025 88.1365C224.025 87.2365 224.187 86.3935 224.511 85.6075C224.835 84.8155 225.282 84.1195 225.852 83.5195C226.422 82.9195 227.082 82.4515 227.832 82.1155C228.582 81.7735 229.383 81.6025 230.235 81.6025C231.093 81.6025 231.897 81.7735 232.647 82.1155C233.397 82.4515 234.057 82.9195 234.627 83.5195C235.197 84.1195 235.641 84.8155 235.959 85.6075C236.283 86.3935 236.445 87.2365 236.445 88.1365C236.445 89.0365 236.283 89.8825 235.959 90.6745C235.641 91.4605 235.197 92.1535 234.627 92.7535C234.057 93.3535 233.397 93.8245 232.647 94.1665C231.897 94.5025 231.093 94.6705 230.235 94.6705ZM230.235 93.1585C230.889 93.1585 231.498 93.0265 232.062 92.7625C232.632 92.4985 233.13 92.1355 233.556 91.6735C233.988 91.2055 234.324 90.6715 234.564 90.0715C234.81 89.4655 234.933 88.8205 234.933 88.1365C234.933 87.4525 234.81 86.8075 234.564 86.2015C234.318 85.5895 233.979 85.0555 233.547 84.5995C233.121 84.1375 232.623 83.7745 232.053 83.5105C231.489 83.2465 230.883 83.1145 230.235 83.1145C229.581 83.1145 228.969 83.2465 228.399 83.5105C227.835 83.7745 227.337 84.1405 226.905 84.6085C226.479 85.0705 226.143 85.6045 225.897 86.2105C225.657 86.8105 225.537 87.4525 225.537 88.1365C225.537 88.8265 225.66 89.4745 225.906 90.0805C226.152 90.6865 226.488 91.2205 226.914 91.6825C227.346 92.1445 227.844 92.5075 228.408 92.7715C228.978 93.0295 229.587 93.1585 230.235 93.1585ZM246.64 88.8385V94.4365H245.128V89.1715C245.128 88.7155 245.017 88.3015 244.795 87.9295C244.573 87.5575 244.276 87.2635 243.904 87.0475C243.532 86.8255 243.118 86.7145 242.662 86.7145C242.212 86.7145 241.798 86.8255 241.42 87.0475C241.048 87.2635 240.751 87.5575 240.529 87.9295C240.307 88.3015 240.196 88.7155 240.196 89.1715V94.4365H238.684V85.4365H240.196V86.5615C240.514 86.1415 240.916 85.8085 241.402 85.5625C241.888 85.3105 242.416 85.1845 242.986 85.1845C243.658 85.1845 244.27 85.3495 244.822 85.6795C245.38 86.0035 245.821 86.4415 246.145 86.9935C246.475 87.5455 246.64 88.1605 246.64 88.8385ZM252.724 94.6705C251.896 94.6705 251.14 94.4575 250.456 94.0315C249.778 93.6055 249.235 93.0355 248.827 92.3215C248.425 91.6015 248.224 90.8065 248.224 89.9365C248.224 89.2765 248.341 88.6615 248.575 88.0915C248.809 87.5155 249.13 87.0115 249.538 86.5795C249.952 86.1415 250.432 85.7995 250.978 85.5535C251.524 85.3075 252.106 85.1845 252.724 85.1845C253.402 85.1845 254.023 85.3225 254.587 85.5985C255.157 85.8685 255.643 86.2465 256.045 86.7325C256.453 87.2185 256.756 87.7825 256.954 88.4245C257.158 89.0665 257.233 89.7535 257.179 90.4855H249.835C249.907 90.9955 250.075 91.4515 250.339 91.8535C250.603 92.2495 250.939 92.5645 251.347 92.7985C251.761 93.0325 252.22 93.1525 252.724 93.1585C253.264 93.1585 253.753 93.0205 254.191 92.7445C254.629 92.4625 254.983 92.0785 255.253 91.5925L256.792 91.9525C256.432 92.7505 255.889 93.4045 255.163 93.9145C254.437 94.4185 253.624 94.6705 252.724 94.6705ZM249.79 89.2975H255.658C255.61 88.7935 255.448 88.3345 255.172 87.9205C254.896 87.5005 254.545 87.1645 254.119 86.9125C253.693 86.6605 253.228 86.5345 252.724 86.5345C252.22 86.5345 251.758 86.6575 251.338 86.9035C250.918 87.1495 250.57 87.4825 250.294 87.9025C250.024 88.3165 249.856 88.7815 249.79 89.2975ZM264.143 94.4365V81.8365H271.532V83.3485H265.655V86.9305H270.668V88.4425H265.655V94.4365H264.143ZM273.396 94.4365V80.9365H274.908V94.4365H273.396ZM281.442 94.6705C280.614 94.6705 279.858 94.4575 279.174 94.0315C278.496 93.6055 277.953 93.0355 277.545 92.3215C277.143 91.6015 276.942 90.8065 276.942 89.9365C276.942 89.2765 277.059 88.6615 277.293 88.0915C277.527 87.5155 277.848 87.0115 278.256 86.5795C278.67 86.1415 279.15 85.7995 279.696 85.5535C280.242 85.3075 280.824 85.1845 281.442 85.1845C282.27 85.1845 283.023 85.3975 283.701 85.8235C284.385 86.2495 284.928 86.8225 285.33 87.5425C285.738 88.2625 285.942 89.0605 285.942 89.9365C285.942 90.5905 285.825 91.2025 285.591 91.7725C285.357 92.3425 285.033 92.8465 284.619 93.2845C284.211 93.7165 283.734 94.0555 283.188 94.3015C282.648 94.5475 282.066 94.6705 281.442 94.6705ZM281.442 93.1585C282.006 93.1585 282.513 93.0115 282.963 92.7175C283.419 92.4175 283.776 92.0245 284.034 91.5385C284.298 91.0465 284.43 90.5125 284.43 89.9365C284.43 89.3485 284.295 88.8085 284.025 88.3165C283.761 87.8245 283.404 87.4315 282.954 87.1375C282.504 86.8435 282 86.6965 281.442 86.6965C280.878 86.6965 280.371 86.8465 279.921 87.1465C279.471 87.4405 279.114 87.8335 278.85 88.3255C278.586 88.8175 278.454 89.3545 278.454 89.9365C278.454 90.5365 278.589 91.0825 278.859 91.5745C279.129 92.0605 279.492 92.4475 279.948 92.7355C280.404 93.0175 280.902 93.1585 281.442 93.1585ZM291.55 94.4365H290.02L287.005 85.4365H288.481L290.803 92.3035L293.098 85.4365H294.655L296.959 92.3035L299.254 85.4365H300.748L297.733 94.4365H296.194L293.863 87.5065L291.55 94.4365ZM311.908 81.8365H313.735L318.316 94.4365H316.714L315.778 91.8625H309.865L308.938 94.4365H307.327L311.908 81.8365ZM310.423 90.3505H315.22L312.817 83.7715L310.423 90.3505ZM324.346 86.9485H322.303L322.294 94.4365H320.782L320.791 86.9485H319.243V85.4365H320.791L320.782 82.6105H322.294L322.303 85.4365H324.346V86.9485ZM335.504 81.8365H337.331L341.912 94.4365H340.31L339.374 91.8625H333.461L332.534 94.4365H330.923L335.504 81.8365ZM334.019 90.3505H338.816L336.413 83.7715L334.019 90.3505ZM358.566 81.8365V83.3485H354.372V94.4365H352.86V83.3485H348.675V81.8365H358.566ZM359.853 85.4365H361.365V94.4365H359.853V85.4365ZM360.627 83.9695C360.387 83.9695 360.186 83.8915 360.024 83.7355C359.862 83.5795 359.781 83.3845 359.781 83.1505C359.781 82.9165 359.862 82.7215 360.024 82.5655C360.186 82.4095 360.384 82.3315 360.618 82.3315C360.852 82.3315 361.05 82.4095 361.212 82.5655C361.374 82.7215 361.455 82.9165 361.455 83.1505C361.455 83.3845 361.374 83.5795 361.212 83.7355C361.056 83.8915 360.861 83.9695 360.627 83.9695ZM363.975 94.4365V85.4365H365.487V86.5615C365.805 86.1415 366.204 85.8085 366.684 85.5625C367.17 85.3105 367.698 85.1845 368.268 85.1845C368.934 85.1845 369.543 85.3465 370.095 85.6705C370.647 85.9945 371.082 86.4235 371.4 86.9575C371.718 86.4235 372.15 85.9945 372.696 85.6705C373.248 85.3465 373.854 85.1845 374.514 85.1845C375.192 85.1845 375.807 85.3495 376.359 85.6795C376.911 86.0035 377.349 86.4415 377.673 86.9935C378.003 87.5455 378.168 88.1605 378.168 88.8385V94.4365H376.656V89.1985C376.656 88.7545 376.548 88.3435 376.332 87.9655C376.116 87.5875 375.825 87.2845 375.459 87.0565C375.093 86.8285 374.688 86.7145 374.244 86.7145C373.8 86.7145 373.395 86.8225 373.029 87.0385C372.663 87.2485 372.372 87.5425 372.156 87.9205C371.94 88.2925 371.832 88.7185 371.832 89.1985V94.4365H370.32V89.1985C370.32 88.7185 370.212 88.2925 369.996 87.9205C369.78 87.5425 369.486 87.2485 369.114 87.0385C368.748 86.8225 368.343 86.7145 367.899 86.7145C367.461 86.7145 367.056 86.8285 366.684 87.0565C366.318 87.2845 366.027 87.5875 365.811 87.9655C365.595 88.3435 365.487 88.7545 365.487 89.1985V94.4365H363.975ZM384.255 94.6705C383.427 94.6705 382.671 94.4575 381.987 94.0315C381.309 93.6055 380.766 93.0355 380.358 92.3215C379.956 91.6015 379.755 90.8065 379.755 89.9365C379.755 89.2765 379.872 88.6615 380.106 88.0915C380.34 87.5155 380.661 87.0115 381.069 86.5795C381.483 86.1415 381.963 85.7995 382.509 85.5535C383.055 85.3075 383.637 85.1845 384.255 85.1845C384.933 85.1845 385.554 85.3225 386.118 85.5985C386.688 85.8685 387.174 86.2465 387.576 86.7325C387.984 87.2185 388.287 87.7825 388.485 88.4245C388.689 89.0665 388.764 89.7535 388.71 90.4855H381.366C381.438 90.9955 381.606 91.4515 381.87 91.8535C382.134 92.2495 382.47 92.5645 382.878 92.7985C383.292 93.0325 383.751 93.1525 384.255 93.1585C384.795 93.1585 385.284 93.0205 385.722 92.7445C386.16 92.4625 386.514 92.0785 386.784 91.5925L388.323 91.9525C387.963 92.7505 387.42 93.4045 386.694 93.9145C385.968 94.4185 385.155 94.6705 384.255 94.6705ZM381.321 89.2975H387.189C387.141 88.7935 386.979 88.3345 386.703 87.9205C386.427 87.5005 386.076 87.1645 385.65 86.9125C385.224 86.6605 384.759 86.5345 384.255 86.5345C383.751 86.5345 383.289 86.6575 382.869 86.9035C382.449 87.1495 382.101 87.4825 381.825 87.9025C381.555 88.3165 381.387 88.7815 381.321 89.2975Z" fill="white"/>
<path d="M96.8862 16.6798C91.8245 16.6798 88.2464 19.9961 88.2464 24.8833V33.7849H108.406V41.4647H88.2464V67.035H79.083V25.9305C79.083 16.1562 86.5883 9 96.8862 9H115.737V16.6798H96.8862Z" fill="white"/>
<path d="M121.521 67.0894V6H130.685V67.0894H121.521Z" fill="white"/>
<path d="M159.16 22C171.727 22 181.851 32.1235 181.851 44.6904C181.85 57.17 171.727 67.3808 159.16 67.3809C146.681 67.3809 136.47 57.17 136.47 44.6904C136.47 32.1235 146.68 22 159.16 22ZM159.16 30.7227C151.742 30.7227 145.633 36.9187 145.633 44.6855C145.633 52.3654 151.742 58.6494 159.16 58.6494C166.665 58.6492 172.687 52.3652 172.687 44.6855C172.686 36.9188 166.665 30.7229 159.16 30.7227Z" fill="white"/>
<path d="M239.125 22H248.289L242.267 56.6464C241.307 62.7554 236.682 66.508 230.66 66.508C224.638 66.508 220.537 62.7554 219.402 56.6464L218.006 48.443L216.522 56.6464C215.475 62.7554 211.373 66.508 205.352 66.508C199.33 66.508 194.705 62.7554 193.657 56.6464L187.636 22H196.886L202.384 55.1628C202.646 56.7337 203.868 57.5191 205.352 57.5191C206.835 57.5191 208.057 56.7337 208.319 55.1628L213.381 22H222.631L227.693 55.1628C227.955 56.7337 229.177 57.5191 230.66 57.5191C232.144 57.5191 233.278 56.7337 233.627 55.1628L239.125 22Z" fill="white"/>
<path d="M382.316 42.405C382.491 42.4923 382.665 42.5796 382.84 42.7541V41.9688C382.665 42.056 382.491 42.2305 382.316 42.405Z" fill="white"/>
<path d="M356.834 42.1406V42.5769C356.921 42.5769 357.009 42.4897 357.183 42.4024C357.009 42.3151 356.921 42.2279 356.834 42.1406Z" fill="white"/>
<path d="M331.626 65.7345C327.525 65.2029 323.278 65.1877 319.359 64.0435C310.261 61.3855 303.801 51.3762 304.307 42.0656C304.91 31.0184 314.144 22.7152 322.625 21.733C327.991 21.1154 333.464 21.3432 338.887 21.2774C339.271 21.2723 339.985 21.9457 340 22.3305C340.097 24.4062 340.107 26.4972 339.94 28.5679C339.904 29.0286 339.054 29.7628 338.557 29.783C335.788 29.8944 332.993 29.6716 330.234 29.864C327.369 30.0615 324.351 30.1222 321.713 31.0994C315.972 33.2156 312.777 39.7518 314.013 45.7817C315.304 52.1002 320.539 56.6922 326.705 56.8087C330.685 56.8846 334.669 56.8593 338.649 56.8036C339.95 56.7884 340.481 57.2289 340.416 58.5604C340.329 60.1957 340.299 61.8462 340.41 63.4815C340.517 64.9903 339.823 65.3042 338.507 65.2637C336.234 65.1979 333.955 65.2434 331.682 65.2434C331.672 65.4105 331.652 65.5725 331.626 65.7345Z" fill="#1092C6"/>
<path d="M348.962 60.7823C349.088 60.5089 349.296 59.6989 349.767 59.0812C353.27 54.4689 356.835 49.8972 360.369 45.3051C366.13 37.8121 371.871 30.3038 377.638 22.8209C379.557 20.3299 381.8 19.8945 384.022 21.5045C385.926 22.8816 386.245 25.6105 384.513 27.8989C378.767 35.4831 372.945 43.0066 367.128 50.5351C363.892 54.7221 360.612 58.8787 357.336 63.0303C356.04 64.6757 354.587 65.987 352.212 65.3997C350.278 64.9187 348.967 63.3391 348.962 60.7823Z" fill="#1092C6"/>
<path d="M402.75 10.4296C402.74 15.7254 398.027 20.3326 392.604 20.3478C386.706 20.3681 382.013 15.7052 382.013 9.81703C382.003 4.65795 386.868 0.0254182 392.306 0.000103817C398.153 -0.0252106 402.76 4.58201 402.75 10.4296Z" fill="#1092C6"/>
<path d="M343.507 30.6016C346.753 34.6772 349.674 38.287 352.499 41.9728C352.803 42.3728 352.747 43.2891 352.514 43.8106C351.476 46.1649 349.937 47.2888 347.011 47.1724C339.766 46.8838 332.501 47.1015 325.241 47.1167C324.861 47.1167 324.481 47.1268 324.106 47.1015C320.998 46.8888 319.368 45.4206 319.388 42.8588C319.408 40.1957 321.373 38.3275 324.37 38.2971C329.417 38.2465 334.465 38.3275 339.518 38.2769C343.011 38.2414 342.439 38.9958 342.905 35.0164C343.052 33.6849 343.259 32.3634 343.507 30.6016Z" fill="#1092C6"/>
<path d="M372.815 54.2272C374.593 51.9135 376.263 49.7365 378.121 47.3164C381.27 51.5844 384.374 55.6853 387.341 59.8825C388.369 61.3355 387.776 63.3708 386.303 64.6112C385.083 65.639 382.42 65.7655 381.215 64.6517C380.025 63.548 378.992 62.262 377.98 60.9862C376.233 58.7686 374.552 56.5055 372.815 54.2272Z" fill="#1092C6"/>
<path d="M359.072 37.7374C355.751 33.758 352.571 30.0317 349.523 26.1991C349.057 25.6118 349.007 24.4929 349.143 23.6829C349.412 22.1235 350.273 20.9337 351.943 20.4578C353.655 19.9718 355.148 20.3211 356.201 21.6881C358.54 24.7258 360.783 27.8445 363.006 30.9785C363.203 31.2569 363.087 31.9556 362.864 32.2898C361.689 34.0618 360.439 35.7882 359.072 37.7374Z" fill="#1092C6"/>
<path d="M281.215 20C284.822 20.0001 287.905 20.7273 290.465 22.1816C293.083 23.6361 295.061 25.7017 296.399 28.3779C297.796 30.996 298.494 34.1671 298.494 37.8906V66.6895H288.458V40.5088C288.458 36.9016 287.469 34.0793 285.491 32.043C283.513 29.9485 280.778 28.9014 277.287 28.9014C273.156 28.9596 269.898 30.4148 267.513 33.2656C265.546 35.6751 264.414 38.5834 264.109 41.9902V66.6885H254.073V20.3477H264.109V29.1602C265.704 26.1194 267.855 23.8795 270.567 22.4434C273.593 20.8143 277.142 20 281.215 20Z" fill="white"/>
<g clip-path="url(#clip0_624_643)">
<path d="M15.8715 6.16148C16.137 6.1626 16.4024 6.16148 16.6679 6.16016C20.9417 6.15618 24.9207 7.9889 28.1193 10.7557C28.1992 10.8241 28.2791 10.8925 28.3614 10.9629C29.5857 12.037 30.7653 13.1952 31.7523 14.4925C31.7993 14.5535 31.8464 14.6144 31.8948 14.6772C34.8394 18.4974 36.8063 22.7259 38.3421 27.278C38.3704 27.3619 38.3988 27.4458 38.4279 27.5323C38.4562 27.616 38.4844 27.6997 38.5135 27.7859C38.9201 28.9886 39.3529 30.1766 39.8292 31.3534C39.8557 31.4195 39.8821 31.4855 39.9093 31.5536C41.5085 35.5331 44.171 38.3412 48.1185 40.032C48.9104 40.3564 49.7173 40.6232 50.54 40.8576C50.6634 40.893 50.6634 40.893 50.7893 40.9291C54.3819 41.9055 58.4638 41.337 61.6855 39.5212C63.7308 38.2892 65.5795 36.7265 67.0701 34.8555C67.3805 34.4695 67.6469 34.3381 68.1341 34.2598C68.5431 34.3256 68.6595 34.4376 68.9093 34.7587C69.0883 35.0635 69.0811 35.3363 69.0809 35.6851C69.0815 35.7576 69.0822 35.8302 69.0829 35.9049C69.0845 36.1468 69.0823 36.3886 69.0802 36.6305C69.0806 36.8045 69.0812 36.9785 69.082 37.1524C69.0835 37.6246 69.0817 38.0966 69.0792 38.5687C69.0771 39.0645 69.0778 39.5603 69.078 40.056C69.078 40.8899 69.076 41.7237 69.0726 42.5576C69.0688 43.5173 69.0679 44.4771 69.0686 45.4368C69.0693 46.3635 69.0681 47.2901 69.0661 48.2168C69.0653 48.6093 69.065 49.0017 69.0652 49.3942C69.0652 49.8587 69.0637 50.3232 69.0611 50.7877C69.0603 50.9567 69.0601 51.1256 69.0605 51.2945C69.0675 55.4628 67.3354 58.991 64.553 62.0327C64.4639 62.1305 64.3748 62.2283 64.2829 62.3291C61.9711 64.7492 58.9603 66.2658 55.7365 67.0475C55.6692 67.0641 55.6018 67.0806 55.5324 67.0977C51.2157 68.0846 46.5423 66.8222 42.8589 64.5239C42.0556 63.9897 41.3155 63.3765 40.5753 62.7593C40.5092 62.7074 40.4431 62.6555 40.375 62.602C39.8996 62.2208 39.5322 61.7711 39.1537 61.2952C39.0036 61.1066 38.8509 60.92 38.6947 60.7364C36.8178 58.526 35.3911 55.9333 33.9354 53.437C32.2576 50.5614 30.5083 47.721 28.4307 45.1134C28.3521 45.0146 28.2734 44.9159 28.1923 44.8141C27.7381 44.2518 27.2677 43.708 26.7801 43.1744C26.5917 42.9661 26.4114 42.7534 26.2315 42.5378C25.2607 41.4283 24.1024 40.497 22.9294 39.612C22.8683 39.5652 22.8072 39.5184 22.7442 39.4702C19.0995 36.6815 14.8932 35.1827 10.3696 34.5258C10.1816 34.4983 10.1816 34.4983 9.98985 34.4703C9.47791 34.4076 8.96822 34.4033 8.45298 34.4009C8.35005 34.4003 8.24713 34.3998 8.14108 34.3991C7.92378 34.3982 7.70647 34.3975 7.48916 34.3971C7.16253 34.3961 6.83598 34.3929 6.50937 34.3896C4.63752 34.3797 2.76597 34.4963 1.12497 35.4989C0.820062 35.6676 0.820062 35.6676 0.573538 35.6482C0.404864 35.5638 0.404864 35.5638 0.301064 35.46C0.290365 35.2674 0.287028 35.0744 0.286486 34.8815C0.285893 34.7558 0.285301 34.6302 0.28469 34.5007C0.284561 34.3601 0.284444 34.2195 0.284338 34.0788C0.283858 33.9317 0.283337 33.7846 0.282777 33.6374C0.281411 33.236 0.280744 32.8347 0.280284 32.4333C0.27998 32.1819 0.279555 31.9305 0.279091 31.679C0.277669 30.8906 0.276667 30.1023 0.276267 29.3139C0.275805 28.4074 0.273995 27.501 0.270972 26.5946C0.268713 25.8924 0.267681 25.1901 0.267543 24.4879C0.267435 24.0695 0.266843 23.6511 0.264968 23.2326C0.247592 19.1154 0.934149 15.4304 3.51885 12.1051C3.59258 12.0101 3.6663 11.9151 3.74226 11.8172C5.79718 9.23866 8.42858 7.60648 11.5698 6.68159C11.6555 6.65601 11.7413 6.63043 11.8296 6.60407C13.1663 6.22662 14.4918 6.1546 15.8715 6.16148Z" fill="#1092C6"/>
<path d="M57.1833 7.01857C57.2598 7.0397 57.3362 7.06082 57.415 7.08259C61.2528 8.17307 64.5442 10.848 66.5192 14.289C68.3333 17.5623 69.2803 21.6168 68.2274 25.2982C67.7107 26.9459 66.8469 28.2735 65.6949 29.5431C65.6423 29.6019 65.5898 29.6607 65.5356 29.7213C64.933 30.3954 64.3272 31.0537 63.6189 31.6191C63.52 31.6987 63.4211 31.7783 63.3193 31.8603C60.7377 33.9088 57.4415 35.7656 54.0693 35.8748C53.9973 35.8775 53.9252 35.8802 53.851 35.883C51.1865 35.9703 48.6425 35.39 46.5958 33.5913C46.5195 33.5298 46.4432 33.4684 46.3647 33.4051C41.8368 29.6533 39.1951 20.9284 38.5444 15.2573C38.4839 14.603 38.4668 13.9488 38.4605 13.292C38.459 13.1821 38.4576 13.0722 38.4561 12.959C38.4667 11.2355 39.0711 9.66278 40.2798 8.42311C41.6785 7.17982 43.4071 6.54479 45.2464 6.29198C45.3621 6.27594 45.3621 6.27594 45.4802 6.25959C49.3635 5.75855 53.4155 5.96777 57.1833 7.01857Z" fill="white"/>
<path d="M11.7178 40.4418C11.803 40.4624 11.8882 40.483 11.976 40.5042C16.6601 41.6797 20.8768 44.6823 23.8623 48.4344C23.9294 48.5152 23.9964 48.596 24.0655 48.6793C25.1964 50.0521 26.1141 51.5539 26.9763 53.1054C27.0206 53.1839 27.0649 53.2623 27.1105 53.3432C28.8584 56.4537 30.5687 60.4466 29.9147 64.0931C29.5647 65.2487 28.7923 66.0995 27.7418 66.6707C26.2763 67.3347 24.7831 67.2713 23.2055 67.2708C22.9483 67.2715 22.6912 67.2723 22.434 67.2731C21.8959 67.2745 21.3577 67.2747 20.8196 67.2741C20.1374 67.2735 19.4553 67.2767 18.7731 67.2809C18.2418 67.2836 17.7105 67.2838 17.1791 67.2835C16.9281 67.2836 16.677 67.2846 16.4259 67.2865C11.881 67.3167 7.82449 65.8894 4.55561 62.6938C2.70682 60.8385 1.45908 58.5108 0.734486 56.0053C0.714248 55.9369 0.69401 55.8685 0.673159 55.7981C0.289304 54.3842 0.266232 52.9205 0.264955 51.4665C0.264286 51.2838 0.263587 51.1012 0.262861 50.9185C0.261629 50.5387 0.261233 50.1589 0.261357 49.7791C0.261378 49.2964 0.258533 48.8137 0.254968 48.331C0.252643 47.9548 0.252239 47.5787 0.252348 47.2025C0.252106 47.0246 0.251205 46.8468 0.249581 46.669C0.236209 45.0549 0.458318 43.752 1.44162 42.414C1.52083 42.3027 1.60004 42.1914 1.68166 42.0767C4.1666 39.5339 8.53165 39.6651 11.7178 40.4418Z" fill="white"/>
</g>
<defs>
<clipPath id="clip0_624_643">
<rect width="68.8333" height="61.4363" fill="white" transform="translate(0.249023 6)"/>
</clipPath>
</defs>
</svg>
